{"title":"A Fork In The Road 2010 DvDRip H264 Feel-Free","uid":6016062,"size":863958637,"categoryP":"video","categoryS":"movies","magnet":"?xt=urn:btih:742445fc552a4dbb629611a24cab8652675c0a5d&amp;dn=A+Fork+In+The+Road+2010+DvDRip+H264+Feel-Free&amp;tr=udp%3A%2F%2Ftracker.openbittorrent.com%3A80&amp;tr=udp%3A%2F%2Fopen.demonii.com%3A1337&amp;tr=udp%3A%2F%2Ftracker.coppersurfer.tk%3A6969&amp;tr=udp%3A%2F%2Fexodus.desync.com%3A6969","seeders":0,"leechers":1,"uploader":"neon","files":4,"time":1291595474,"description":"Genre:Comedy | Crime\nLanguage:English\n &lt;a href=&quot; http://www.imdb.com/title/tt1117386/&quot; rel=&quot;nofollow&quot; target=&quot;_NEW&quot;&gt; http://www.imdb.com/title/tt1117386/&lt;/a&gt;\nSource:DVD\n\nFormat : MPEG-4\nFormat profile : Base Media\nCodec ID : isom\nFile size : 823 MiB\nDuration : 1h 44mn\nOverall bit rate : 1 097 Kbps\n\n\nVideo\nCodec ID : avc1\nCodec ID/Info : Advanced Video Coding\nDuration : 1h 44mn\nBit rate mode : Variable\nBit rate : 931 Kbps\nWidth : 720 pixels\nHeight : 384 pixels\nDisplay aspect ratio : 1.875\nFrame rate mode : Constant\nFrame rate : 29.970 fps\nOriginal frame rate : 29.000 fps\nColor space : YUV\nChroma subsampling : 4:2:0\nBit depth : 8 bits\nScan type : Progressive\nBits/(Pixel*Frame) : 0.112\nStream size : 699 MiB (85%)\nLanguage : English\n\nAudio\nID : 1\nFormat : AAC\nFormat/Info : Advanced Audio Codec\nFormat version : Version 4\nFormat profile : LC\nCodec ID : 40\nDuration : 1h 44mn\nBit rate mode : Constant\nBit rate : 160 Kbps\nChannel(s) : 2 channels\nChannel positions : Front: L R\nSampling rate : 48.0 KHz\nStream size : 120 MiB (15%)\nLanguage : English\n\n\nPlot:\nWill, an escaped convict, inadvertently takes refuge in a barn the same night the owners, April and Martin\n\n","torrent":{"xt":"urn:btih:742445fc552a4dbb629611a24cab8652675c0a5d","amp;dn":"A+Fork+In+The+Road+2010+DvDRip+H264+Feel-Free","amp;tr":["udp%3A%2F%2Ftracker.openbittorrent.com%3A80","udp%3A%2F%2Fopen.demonii.com%3A1337","udp%3A%2F%2Ftracker.coppersurfer.tk%3A6969","udp%3A%2F%2Fexodus.desync.com%3A6969"],"infoHash":"742445fc552a4dbb629611a24cab8652675c0a5d","infoHashBuffer":{"type":"Buffer","data":[116,36,69,252,85,42,77,187,98,150,17,162,76,171,134,82,103,92,10,93]},"announce":[],"urlList":[]}}